<svg width="142" height="142" viewBox="0 0 142 142" fill="none" xmlns="http://www.w3.org/2000/svg">
<path d="M10.8254 56.6914C10.4848 62.5389 11.1036 68.4966 12.7538 74.3441L64.6804 59.7854L10.8254 56.6914Z" fill="url(#paint0_linear)"/>
<path d="M54.458 6.82227C50.1695 7.65693 45.9147 9.02405 41.7749 10.9668C40.4174 11.6048 39.0982 12.2908 37.8223 13.0247L64.6802 59.785L54.458 6.82227Z" fill="url(#paint1_linear)"/>
<path d="M24.0845 24.2642C20.1366 28.7829 16.9946 33.8964 14.7593 39.3745L64.6856 59.7805L24.0845 24.2642Z" fill="url(#paint2_linear)"/>
<path d="M113.499 36.8754C110.894 31.3254 107.464 26.4229 103.43 22.2544L64.6807 59.7855L113.499 36.8754Z" fill="url(#paint3_linear)"/>
<path d="M89.145 11.7106C83.8396 9.01468 78.112 7.20625 72.207 6.37158L64.6807 59.7805L89.145 11.7106Z" fill="url(#paint4_linear)"/>
<path d="M72.7539 135.404C97.4239 135.404 117.423 133.707 117.423 131.614C117.423 129.521 97.4239 127.825 72.7539 127.825C48.0839 127.825 28.085 129.521 28.085 131.614C28.085 133.707 48.0839 135.404 72.7539 135.404Z" fill="#D3DEF4"/>
<path d="M113.998 50.4074C80.9038 47.9178 73.9914 24.8494 55.1971 27.2575C32.5988 30.1548 -0.058588 106.728 73.411 116.83C82.1942 118.039 103.286 114.964 103.286 114.964C104.471 114.724 104.644 112.811 103.109 112.115C95.9997 108.887 94.1049 102.723 96.8728 100.401C115.974 84.4128 121.951 51.007 113.998 50.4074Z" fill="#AECEFC"/>
<path d="M66.0429 46.5365C67.0761 46.5365 67.9137 45.6989 67.9137 44.6657C67.9137 43.6325 67.0761 42.7949 66.0429 42.7949C65.0097 42.7949 64.1721 43.6325 64.1721 44.6657C64.1721 45.6989 65.0097 46.5365 66.0429 46.5365Z" fill="#3770E2"/>
<path d="M69.3959 51.2513C69.3335 51.0978 69.1608 51.0211 69.0073 51.0835C54.5974 56.715 47.5171 50.6805 46.6297 49.8411C47.5459 48.1765 47.0374 46.6991 47.0326 46.6799C46.975 46.5264 46.8071 46.4448 46.6488 46.5024C46.4953 46.56 46.4138 46.7278 46.4666 46.8861C46.5049 46.9965 47.402 49.6684 43.8187 51.7118C43.6748 51.7934 43.6268 51.9757 43.7083 52.1196C43.7659 52.2155 43.8666 52.2683 43.9674 52.2683C44.0153 52.2683 44.0681 52.2539 44.1161 52.2299C45.1426 51.6447 45.8382 50.9971 46.2987 50.3591C46.8647 50.8868 48.6204 52.3259 51.7144 53.2565C53.2158 53.7074 55.1634 54.0671 57.5666 54.0671C60.6894 54.0671 64.5749 53.4579 69.2231 51.6399C69.3814 51.5823 69.4582 51.4096 69.3959 51.2513Z" fill="#3770E2"/>
<path d="M63.5102 110.057C63.5102 110.057 63.5102 115.353 63.5102 117.118C63.5102 118.745 63.5102 123.628 63.5102 123.628C63.5102 123.628 60.6177 125.518 60.6177 128.348C60.6177 129.84 61.8265 131.053 63.3231 131.053H67.2518C69.2521 131.053 70.8735 129.432 70.8735 127.432C70.8735 127.432 70.8735 119.694 70.8735 117.114C70.8735 115.209 70.8735 109.496 70.8735 109.496" fill="#FFE3E2"/>
<path d="M82.137 106.728L85.5908 120.812C85.5908 120.812 88.8527 121.958 89.5242 124.707C89.8792 126.156 88.9918 127.623 87.5431 127.978L83.7248 128.914C81.782 129.389 79.8201 128.204 79.3452 126.261L75.0759 108.843" fill="#FFE3E2"/>
<path d="M69.9481 131.053H69.0558C69.0606 124.453 63.2324 123.589 63.2324 123.589C63.2324 123.589 61.5439 124.285 61.2561 126.05C65.7412 126.923 65.6212 131.053 65.6212 131.053H61.5343C61.0258 131.053 60.6133 131.466 60.6133 131.974V132.118C60.6133 132.627 61.0258 133.039 61.5343 133.039H69.9433C70.4517 133.039 70.8643 132.627 70.8643 132.118V131.974C70.8739 131.466 70.4613 131.053 69.9481 131.053Z" fill="#91BBFF"/>
<path d="M90.421 128.377L90.3874 128.237C90.2675 127.743 89.7686 127.441 89.2697 127.561L85.3123 128.53C85.1827 127.959 84.5399 124.39 88.3487 122.635C87.6483 120.989 85.8447 120.716 85.8447 120.716C85.8447 120.716 80.477 123.009 81.9832 129.345L81.1006 129.561C80.6065 129.681 80.3043 130.18 80.4242 130.679L80.4578 130.818C80.5777 131.312 81.0766 131.614 81.5754 131.494L89.7446 129.494C90.2435 129.369 90.5457 128.871 90.421 128.377Z" fill="#91BBFF"/>
<path d="M63.2943 110.354C62.3637 110.354 61.4667 110.316 60.5937 110.249C60.4306 110.234 60.3058 110.091 60.3202 109.927C60.3346 109.764 60.4785 109.64 60.6416 109.654C64.412 109.966 68.6717 109.596 74.049 108.503C79.4263 107.409 83.4894 106.08 86.8376 104.325C86.9863 104.248 87.1638 104.305 87.2405 104.449C87.3173 104.593 87.2597 104.776 87.1158 104.852C83.7148 106.637 79.599 107.98 74.1689 109.088C69.9716 109.942 66.4459 110.354 63.2943 110.354Z" fill="#3770E2"/>
<path d="M51.4941 47.1791C51.4221 47.1791 51.3549 47.1551 51.2974 47.1024C51.1727 46.992 51.1631 46.8049 51.2686 46.6802C51.283 46.6658 52.6645 45.1356 54.9958 46.3972C55.1397 46.474 55.1973 46.6562 55.1157 46.8001C55.039 46.9441 54.8567 46.9968 54.7128 46.9201C52.8132 45.8935 51.7627 47.0256 51.7195 47.0736C51.6572 47.1455 51.5756 47.1791 51.4941 47.1791Z" fill="#3770E2"/>
<path d="M94.762 65.561C94.762 65.561 94.8531 69.0484 98.4748 70.5978L100.528 69.3986C100.528 69.3986 95.6254 67.168 95.5007 63.46L95.4815 62.7788L94.762 65.561Z" fill="#FFE3B2"/>
<path d="M94.7621 65.561C94.7621 65.561 95.7743 63.1194 100.322 61.8674L99.5638 58.4424C99.5686 58.4424 94.7333 60.3036 94.7621 65.561Z" fill="#FCF5D4"/>
<path d="M86.9669 24.0579C86.9669 24.0579 84.5205 26.0534 84.6452 29.0179L86.1898 29.5407C86.1898 29.5407 86.1179 25.4538 88.7034 23.3143L89.1831 22.9258L86.9669 24.0579Z" fill="#B1E1DD"/>
<path d="M86.967 24.058C86.967 24.058 89.0393 23.2857 91.4618 25.2333L93.6396 22.8876C93.6396 22.8876 90.6895 21.1127 86.967 24.058Z" fill="#CAEFEA"/>
<path d="M16.5441 75.8505C16.5441 75.8505 18.4581 72.6941 16.122 69.2451L13.6084 69.1348C13.6084 69.1348 16.688 73.9221 14.6829 77.2943L14.3087 77.9131L16.5441 75.8505Z" fill="#FFC5BF"/>
<path d="M16.5436 75.8501C16.5436 75.8501 14.2459 77.4427 9.48251 75.9508L8.19214 79.4286C8.19214 79.4334 13.5599 80.5463 16.5436 75.8501Z" fill="#FFD6CE"/>
<path d="M17.2824 106.594C17.2824 106.594 16.3997 107.899 17.9683 110.35L20.3812 110.057C20.3812 110.057 16.6971 107.587 19.4985 105.092L19.9686 104.421L17.2824 106.594Z" fill="#FFE3B2"/>
<path d="M17.283 106.594C17.283 106.594 18.463 105.375 23.2263 107.193L24.9484 103.341C24.9484 103.341 19.6047 101.811 17.283 106.594Z" fill="#FCF5D4"/>
<path d="M66.0429 68.0888L64.7909 66.4195C64.4839 66.0118 64.3976 65.4793 64.5607 64.9996L65.2226 63.0233C65.6304 61.8097 64.4695 60.6536 63.2559 61.0661L61.2844 61.7425C60.8047 61.9056 60.2722 61.8241 59.8645 61.5219L58.1903 60.2794C57.159 59.5167 55.7008 60.2651 55.7247 61.5458L55.7583 63.6277C55.7631 63.9395 55.6624 64.2321 55.4993 64.4863C55.8207 64.5343 56.1421 64.5823 56.4731 64.6255C58.977 64.9421 59.7206 68.5397 59.5239 73.4518C59.7925 73.3463 60.0371 73.1688 60.2242 72.9001L61.4235 71.1972C61.7161 70.7799 62.1958 70.5353 62.7043 70.5401L64.7861 70.5592C66.0717 70.5784 66.8104 69.1154 66.0429 68.0888Z" fill="#FFE3B2"/>
<path d="M98.2208 40.0891C99.4978 40.0891 100.533 39.0539 100.533 37.777C100.533 36.5 99.4978 35.4648 98.2208 35.4648C96.9439 35.4648 95.9087 36.5 95.9087 37.777C95.9087 39.0539 96.9439 40.0891 98.2208 40.0891Z" fill="#FFD6CE"/>
<path d="M40.9168 82.0578C42.1938 82.0578 43.2289 81.0227 43.2289 79.7457C43.2289 78.4688 42.1938 77.4336 40.9168 77.4336C39.6399 77.4336 38.6047 78.4688 38.6047 79.7457C38.6047 81.0227 39.6399 82.0578 40.9168 82.0578Z" fill="#FFD6CE"/>
<path d="M53.1728 104.891C53.144 104.891 53.1152 104.886 53.0864 104.876C52.9281 104.828 52.837 104.661 52.8849 104.502C52.9809 104.186 62.4596 72.7466 58.1328 66.0645C57.6914 65.3834 57.135 65.0092 56.4347 64.9228C42.4612 63.148 38.5038 56.6578 38.3455 56.3843C38.2639 56.2404 38.3119 56.0581 38.451 55.9766C38.5949 55.8903 38.7772 55.9382 38.8587 56.0821C38.8971 56.1493 42.8594 62.5963 56.5114 64.3328C57.3844 64.4432 58.0992 64.918 58.6364 65.7431C60.5264 68.6644 60.229 76.1141 57.7442 87.8905C55.9022 96.6161 53.4845 104.603 53.4606 104.68C53.4222 104.804 53.3023 104.891 53.1728 104.891Z" fill="#3770E2"/>
<defs>
<linearGradient id="paint0_linear" x1="62.6216" y1="56.3773" x2="9.80019" y2="65.8752" gradientUnits="userSpaceOnUse">
<stop stop-color="#FCE697"/>
<stop offset="0.4653" stop-color="#FCE699" stop-opacity="0.5342"/>
<stop offset="0.6329" stop-color="#FCE8A0" stop-opacity="0.3665"/>
<stop offset="0.7524" stop-color="#FCEAAB" stop-opacity="0.2469"/>
<stop offset="0.849" stop-color="#FCEDBC" stop-opacity="0.1502"/>
<stop offset="0.9308" stop-color="#FCF1D2" stop-opacity="0.0683"/>
<stop offset="0.9991" stop-color="#FCF6EB" stop-opacity="0"/>
</linearGradient>
<linearGradient id="paint1_linear" x1="58.3894" y1="41.3002" x2="46.2255" y2="10.1406" gradientUnits="userSpaceOnUse">
<stop stop-color="#FCE697"/>
<stop offset="0.4653" stop-color="#FCE699" stop-opacity="0.5342"/>
<stop offset="0.6329" stop-color="#FCE8A0" stop-opacity="0.3665"/>
<stop offset="0.7524" stop-color="#FCEAAB" stop-opacity="0.2469"/>
<stop offset="0.849" stop-color="#FCEDBC" stop-opacity="0.1502"/>
<stop offset="0.9308" stop-color="#FCF1D2" stop-opacity="0.0683"/>
<stop offset="0.9991" stop-color="#FCF6EB" stop-opacity="0"/>
</linearGradient>
<linearGradient id="paint2_linear" x1="58.813" y1="54.4022" x2="18.9887" y2="31.574" gradientUnits="userSpaceOnUse">
<stop stop-color="#FCE697"/>
<stop offset="0.4653" stop-color="#FCE699" stop-opacity="0.5342"/>
<stop offset="0.6329" stop-color="#FCE8A0" stop-opacity="0.3665"/>
<stop offset="0.7524" stop-color="#FCEAAB" stop-opacity="0.2469"/>
<stop offset="0.849" stop-color="#FCEDBC" stop-opacity="0.1502"/>
<stop offset="0.9308" stop-color="#FCF1D2" stop-opacity="0.0683"/>
<stop offset="0.9991" stop-color="#FCF6EB" stop-opacity="0"/>
</linearGradient>
<linearGradient id="paint3_linear" x1="67.1276" y1="58.6629" x2="111.867" y2="27.17" gradientUnits="userSpaceOnUse">
<stop stop-color="#FCE697"/>
<stop offset="0.3057" stop-color="#FCE79A" stop-opacity="0.694"/>
<stop offset="0.5032" stop-color="#FCE8A2" stop-opacity="0.4963"/>
<stop offset="0.67" stop-color="#FCEBB1" stop-opacity="0.3294"/>
<stop offset="0.8198" stop-color="#FCEFC6" stop-opacity="0.1795"/>
<stop offset="0.9569" stop-color="#FCF4E1" stop-opacity="0.0422"/>
<stop offset="0.9991" stop-color="#FCF6EB" stop-opacity="0"/>
</linearGradient>
<linearGradient id="paint4_linear" x1="69.1012" y1="43.4427" x2="81.0985" y2="7.78413" gradientUnits="userSpaceOnUse">
<stop stop-color="#FCE697"/>
<stop offset="0.4653" stop-color="#FCE699" stop-opacity="0.5342"/>
<stop offset="0.6329" stop-color="#FCE8A0" stop-opacity="0.3665"/>
<stop offset="0.7524" stop-color="#FCEAAB" stop-opacity="0.2469"/>
<stop offset="0.849" stop-color="#FCEDBC" stop-opacity="0.1502"/>
<stop offset="0.9308" stop-color="#FCF1D2" stop-opacity="0.0683"/>
<stop offset="0.9991" stop-color="#FCF6EB" stop-opacity="0"/>
</linearGradient>
</defs>
</svg>
